<mxfile host="Electron" modified="2024-05-15T15:15:16.513Z" agent="Mozilla/5.0 (Windows NT 10.0; Win64; x64) AppleWebKit/537.36 (KHTML, like Gecko) draw.io/22.1.18 Chrome/120.0.6099.199 Electron/28.1.2 Safari/537.36" etag="m4O23_NI4BOI57Z-vYUe" version="22.1.18" type="device">
  <diagram name="第 1 页" id="cPe3Yp-7C8eFjL992RGT">
    <mxGraphModel dx="1436" dy="968" grid="1" gridSize="10" guides="1" tooltips="1" connect="1" arrows="1" fold="1" page="1" pageScale="1" pageWidth="827" pageHeight="1169" math="0" shadow="0">
      <root>
        <mxCell id="0" />
        <mxCell id="1" parent="0" />
        <mxCell id="V3n6VcFuIu2ShcWLIESG-40" style="edgeStyle=orthogonalEdgeStyle;rounded=0;orthogonalLoop=1;jettySize=auto;html=1;exitX=0.5;exitY=1;exitDx=0;exitDy=0;entryX=0.5;entryY=0;entryDx=0;entryDy=0;" parent="1" source="V3n6VcFuIu2ShcWLIESG-1" target="V3n6VcFuIu2ShcWLIESG-37" edge="1">
          <mxGeometry relative="1" as="geometry" />
        </mxCell>
        <mxCell id="V3n6VcFuIu2ShcWLIESG-1" value="系统上电" style="rounded=0;whiteSpace=wrap;html=1;" parent="1" vertex="1">
          <mxGeometry x="352" y="230" width="117" height="40" as="geometry" />
        </mxCell>
        <mxCell id="V3n6VcFuIu2ShcWLIESG-20" style="edgeStyle=orthogonalEdgeStyle;rounded=0;orthogonalLoop=1;jettySize=auto;html=1;exitX=0;exitY=0.5;exitDx=0;exitDy=0;entryX=0;entryY=0.5;entryDx=0;entryDy=0;" parent="1" source="V3n6VcFuIu2ShcWLIESG-3" edge="1">
          <mxGeometry relative="1" as="geometry">
            <mxPoint x="349" y="600" as="targetPoint" />
            <Array as="points">
              <mxPoint x="300" y="500" />
              <mxPoint x="300" y="600" />
            </Array>
          </mxGeometry>
        </mxCell>
        <mxCell id="V3n6VcFuIu2ShcWLIESG-23" style="edgeStyle=orthogonalEdgeStyle;rounded=0;orthogonalLoop=1;jettySize=auto;html=1;exitX=0;exitY=0.5;exitDx=0;exitDy=0;entryX=0;entryY=0.5;entryDx=0;entryDy=0;" parent="1" source="V3n6VcFuIu2ShcWLIESG-3" target="V3n6VcFuIu2ShcWLIESG-21" edge="1">
          <mxGeometry relative="1" as="geometry">
            <Array as="points">
              <mxPoint x="300" y="500" />
              <mxPoint x="300" y="930" />
            </Array>
          </mxGeometry>
        </mxCell>
        <mxCell id="V3n6VcFuIu2ShcWLIESG-3" value="尝试连接热点x3" style="rounded=0;whiteSpace=wrap;html=1;" parent="1" vertex="1">
          <mxGeometry x="349" y="480" width="120" height="40" as="geometry" />
        </mxCell>
        <mxCell id="V3n6VcFuIu2ShcWLIESG-7" style="edgeStyle=orthogonalEdgeStyle;rounded=0;orthogonalLoop=1;jettySize=auto;html=1;exitX=1;exitY=0.5;exitDx=0;exitDy=0;entryX=1;entryY=0.5;entryDx=0;entryDy=0;" parent="1" source="V3n6VcFuIu2ShcWLIESG-4" target="V3n6VcFuIu2ShcWLIESG-3" edge="1">
          <mxGeometry relative="1" as="geometry">
            <mxPoint x="469" y="510.29" as="targetPoint" />
            <mxPoint x="480" y="410" as="sourcePoint" />
            <Array as="points">
              <mxPoint x="520" y="410" />
              <mxPoint x="520" y="500" />
            </Array>
          </mxGeometry>
        </mxCell>
        <mxCell id="V3n6VcFuIu2ShcWLIESG-19" style="edgeStyle=orthogonalEdgeStyle;rounded=0;orthogonalLoop=1;jettySize=auto;html=1;exitX=1;exitY=0.5;exitDx=0;exitDy=0;entryX=1;entryY=0.5;entryDx=0;entryDy=0;" parent="1" edge="1">
          <mxGeometry relative="1" as="geometry">
            <mxPoint x="475" y="410" as="sourcePoint" />
            <mxPoint x="469" y="600" as="targetPoint" />
            <Array as="points">
              <mxPoint x="520" y="410" />
              <mxPoint x="520" y="600" />
            </Array>
          </mxGeometry>
        </mxCell>
        <mxCell id="V3n6VcFuIu2ShcWLIESG-4" value="查询是否存储信息" style="rounded=0;whiteSpace=wrap;html=1;" parent="1" vertex="1">
          <mxGeometry x="345" y="390" width="130" height="40" as="geometry" />
        </mxCell>
        <mxCell id="V3n6VcFuIu2ShcWLIESG-9" value="×" style="text;html=1;align=center;verticalAlign=middle;resizable=0;points=[];autosize=1;strokeColor=none;fillColor=none;" parent="1" vertex="1">
          <mxGeometry x="490" y="566" width="30" height="30" as="geometry" />
        </mxCell>
        <mxCell id="V3n6VcFuIu2ShcWLIESG-30" style="edgeStyle=orthogonalEdgeStyle;rounded=0;orthogonalLoop=1;jettySize=auto;html=1;exitX=0.5;exitY=1;exitDx=0;exitDy=0;entryX=0.5;entryY=0;entryDx=0;entryDy=0;" parent="1" source="V3n6VcFuIu2ShcWLIESG-21" target="V3n6VcFuIu2ShcWLIESG-29" edge="1">
          <mxGeometry relative="1" as="geometry" />
        </mxCell>
        <mxCell id="V3n6VcFuIu2ShcWLIESG-21" value="进入STA模式" style="rounded=0;whiteSpace=wrap;html=1;" parent="1" vertex="1">
          <mxGeometry x="349" y="910" width="120" height="40" as="geometry" />
        </mxCell>
        <mxCell id="V3n6VcFuIu2ShcWLIESG-25" value="√" style="text;html=1;align=center;verticalAlign=middle;resizable=0;points=[];autosize=1;strokeColor=none;fillColor=none;" parent="1" vertex="1">
          <mxGeometry x="297" y="900" width="30" height="30" as="geometry" />
        </mxCell>
        <mxCell id="V3n6VcFuIu2ShcWLIESG-26" value="√" style="text;html=1;align=center;verticalAlign=middle;resizable=0;points=[];autosize=1;strokeColor=none;fillColor=none;" parent="1" vertex="1">
          <mxGeometry x="490" y="470" width="30" height="30" as="geometry" />
        </mxCell>
        <mxCell id="V3n6VcFuIu2ShcWLIESG-27" value="×" style="text;html=1;align=center;verticalAlign=middle;resizable=0;points=[];autosize=1;strokeColor=none;fillColor=none;" parent="1" vertex="1">
          <mxGeometry x="300" y="570" width="30" height="30" as="geometry" />
        </mxCell>
        <mxCell id="V3n6VcFuIu2ShcWLIESG-29" value="进入主程序" style="rounded=0;whiteSpace=wrap;html=1;" parent="1" vertex="1">
          <mxGeometry x="349" y="1000" width="120" height="40" as="geometry" />
        </mxCell>
        <mxCell id="V3n6VcFuIu2ShcWLIESG-42" style="edgeStyle=orthogonalEdgeStyle;rounded=0;orthogonalLoop=1;jettySize=auto;html=1;exitX=0.5;exitY=1;exitDx=0;exitDy=0;entryX=0.5;entryY=0;entryDx=0;entryDy=0;" parent="1" source="V3n6VcFuIu2ShcWLIESG-31" target="V3n6VcFuIu2ShcWLIESG-32" edge="1">
          <mxGeometry relative="1" as="geometry" />
        </mxCell>
        <mxCell id="V3n6VcFuIu2ShcWLIESG-31" value="AP模式待被连接" style="rounded=0;whiteSpace=wrap;html=1;" parent="1" vertex="1">
          <mxGeometry x="349" y="581" width="120" height="40" as="geometry" />
        </mxCell>
        <mxCell id="V3n6VcFuIu2ShcWLIESG-47" style="edgeStyle=orthogonalEdgeStyle;rounded=0;orthogonalLoop=1;jettySize=auto;html=1;exitX=0.5;exitY=1;exitDx=0;exitDy=0;entryX=0.5;entryY=0;entryDx=0;entryDy=0;" parent="1" source="V3n6VcFuIu2ShcWLIESG-32" target="V3n6VcFuIu2ShcWLIESG-43" edge="1">
          <mxGeometry relative="1" as="geometry" />
        </mxCell>
        <mxCell id="V3n6VcFuIu2ShcWLIESG-32" value="设置热点信息" style="rounded=0;whiteSpace=wrap;html=1;" parent="1" vertex="1">
          <mxGeometry x="350" y="670" width="120" height="40" as="geometry" />
        </mxCell>
        <mxCell id="V3n6VcFuIu2ShcWLIESG-39" style="edgeStyle=orthogonalEdgeStyle;rounded=0;orthogonalLoop=1;jettySize=auto;html=1;exitX=0.5;exitY=1;exitDx=0;exitDy=0;entryX=0.5;entryY=0;entryDx=0;entryDy=0;" parent="1" source="V3n6VcFuIu2ShcWLIESG-37" target="V3n6VcFuIu2ShcWLIESG-4" edge="1">
          <mxGeometry relative="1" as="geometry" />
        </mxCell>
        <mxCell id="V3n6VcFuIu2ShcWLIESG-37" value="进入SmartConfig模式" style="rounded=0;whiteSpace=wrap;html=1;" parent="1" vertex="1">
          <mxGeometry x="345" y="310" width="130" height="40" as="geometry" />
        </mxCell>
        <mxCell id="V3n6VcFuIu2ShcWLIESG-45" style="edgeStyle=orthogonalEdgeStyle;rounded=0;orthogonalLoop=1;jettySize=auto;html=1;exitX=1;exitY=0.5;exitDx=0;exitDy=0;entryX=1;entryY=0.5;entryDx=0;entryDy=0;" parent="1" source="V3n6VcFuIu2ShcWLIESG-43" target="V3n6VcFuIu2ShcWLIESG-44" edge="1">
          <mxGeometry relative="1" as="geometry">
            <Array as="points">
              <mxPoint x="520" y="770" />
              <mxPoint x="520" y="850" />
            </Array>
          </mxGeometry>
        </mxCell>
        <mxCell id="V3n6VcFuIu2ShcWLIESG-50" style="edgeStyle=orthogonalEdgeStyle;rounded=0;orthogonalLoop=1;jettySize=auto;html=1;exitX=1;exitY=0.5;exitDx=0;exitDy=0;entryX=1;entryY=0.75;entryDx=0;entryDy=0;" parent="1" source="V3n6VcFuIu2ShcWLIESG-43" target="V3n6VcFuIu2ShcWLIESG-31" edge="1">
          <mxGeometry relative="1" as="geometry">
            <Array as="points">
              <mxPoint x="520" y="770" />
              <mxPoint x="520" y="611" />
            </Array>
          </mxGeometry>
        </mxCell>
        <mxCell id="V3n6VcFuIu2ShcWLIESG-43" value="尝试连接热点" style="rounded=0;whiteSpace=wrap;html=1;" parent="1" vertex="1">
          <mxGeometry x="350" y="750" width="120" height="40" as="geometry" />
        </mxCell>
        <mxCell id="V3n6VcFuIu2ShcWLIESG-48" style="edgeStyle=orthogonalEdgeStyle;rounded=0;orthogonalLoop=1;jettySize=auto;html=1;exitX=0.5;exitY=1;exitDx=0;exitDy=0;entryX=0.5;entryY=0;entryDx=0;entryDy=0;" parent="1" source="V3n6VcFuIu2ShcWLIESG-44" target="V3n6VcFuIu2ShcWLIESG-21" edge="1">
          <mxGeometry relative="1" as="geometry" />
        </mxCell>
        <mxCell id="V3n6VcFuIu2ShcWLIESG-44" value="保存参数到存储" style="rounded=0;whiteSpace=wrap;html=1;" parent="1" vertex="1">
          <mxGeometry x="350" y="830" width="120" height="40" as="geometry" />
        </mxCell>
        <mxCell id="V3n6VcFuIu2ShcWLIESG-46" value="√" style="text;html=1;align=center;verticalAlign=middle;resizable=0;points=[];autosize=1;strokeColor=none;fillColor=none;" parent="1" vertex="1">
          <mxGeometry x="490" y="820" width="30" height="30" as="geometry" />
        </mxCell>
        <mxCell id="V3n6VcFuIu2ShcWLIESG-51" value="×" style="text;html=1;align=center;verticalAlign=middle;resizable=0;points=[];autosize=1;strokeColor=none;fillColor=none;" parent="1" vertex="1">
          <mxGeometry x="490" y="740" width="30" height="30" as="geometry" />
        </mxCell>
        <mxCell id="3eG_Ezx_b6iwPd1cCEZr-4" style="edgeStyle=orthogonalEdgeStyle;rounded=0;orthogonalLoop=1;jettySize=auto;html=1;exitX=1;exitY=0.5;exitDx=0;exitDy=0;entryX=1;entryY=0.5;entryDx=0;entryDy=0;" parent="1" source="3eG_Ezx_b6iwPd1cCEZr-1" target="3eG_Ezx_b6iwPd1cCEZr-2" edge="1">
          <mxGeometry relative="1" as="geometry">
            <Array as="points">
              <mxPoint x="1241" y="371" />
              <mxPoint x="1241" y="496" />
            </Array>
          </mxGeometry>
        </mxCell>
        <mxCell id="3eG_Ezx_b6iwPd1cCEZr-5" style="edgeStyle=orthogonalEdgeStyle;rounded=0;orthogonalLoop=1;jettySize=auto;html=1;exitX=1;exitY=0.5;exitDx=0;exitDy=0;entryX=1;entryY=0.5;entryDx=0;entryDy=0;" parent="1" source="3eG_Ezx_b6iwPd1cCEZr-1" target="3eG_Ezx_b6iwPd1cCEZr-3" edge="1">
          <mxGeometry relative="1" as="geometry">
            <Array as="points">
              <mxPoint x="1241" y="371" />
              <mxPoint x="1241" y="611" />
            </Array>
          </mxGeometry>
        </mxCell>
        <mxCell id="3eG_Ezx_b6iwPd1cCEZr-1" value="读取标志位，判断是否进入测试模式" style="rounded=0;whiteSpace=wrap;html=1;" parent="1" vertex="1">
          <mxGeometry x="991" y="330" width="180" height="71" as="geometry" />
        </mxCell>
        <mxCell id="3eG_Ezx_b6iwPd1cCEZr-9" style="edgeStyle=orthogonalEdgeStyle;rounded=0;orthogonalLoop=1;jettySize=auto;html=1;exitX=0;exitY=0.5;exitDx=0;exitDy=0;entryX=1;entryY=0.5;entryDx=0;entryDy=0;" parent="1" source="3eG_Ezx_b6iwPd1cCEZr-2" target="3eG_Ezx_b6iwPd1cCEZr-8" edge="1">
          <mxGeometry relative="1" as="geometry" />
        </mxCell>
        <mxCell id="3eG_Ezx_b6iwPd1cCEZr-2" value="进入设置界面" style="rounded=0;whiteSpace=wrap;html=1;" parent="1" vertex="1">
          <mxGeometry x="991" y="466" width="180" height="60" as="geometry" />
        </mxCell>
        <mxCell id="3eG_Ezx_b6iwPd1cCEZr-3" value="直接进入界面（GIF动画）" style="rounded=0;whiteSpace=wrap;html=1;" parent="1" vertex="1">
          <mxGeometry x="991" y="581" width="180" height="60" as="geometry" />
        </mxCell>
        <mxCell id="3eG_Ezx_b6iwPd1cCEZr-6" value="0" style="text;html=1;align=center;verticalAlign=middle;resizable=0;points=[];autosize=1;strokeColor=none;fillColor=none;" parent="1" vertex="1">
          <mxGeometry x="1206" y="466" width="30" height="30" as="geometry" />
        </mxCell>
        <mxCell id="3eG_Ezx_b6iwPd1cCEZr-7" value="1" style="text;html=1;align=center;verticalAlign=middle;resizable=0;points=[];autosize=1;strokeColor=none;fillColor=none;" parent="1" vertex="1">
          <mxGeometry x="1206" y="581" width="30" height="30" as="geometry" />
        </mxCell>
        <mxCell id="3eG_Ezx_b6iwPd1cCEZr-8" value="置位，下次不进行测试" style="rounded=0;whiteSpace=wrap;html=1;" parent="1" vertex="1">
          <mxGeometry x="750" y="466" width="180" height="60" as="geometry" />
        </mxCell>
        <mxCell id="3eG_Ezx_b6iwPd1cCEZr-12" style="edgeStyle=orthogonalEdgeStyle;rounded=0;orthogonalLoop=1;jettySize=auto;html=1;exitX=0.5;exitY=1;exitDx=0;exitDy=0;entryX=0.5;entryY=0;entryDx=0;entryDy=0;" parent="1" source="3eG_Ezx_b6iwPd1cCEZr-10" target="3eG_Ezx_b6iwPd1cCEZr-11" edge="1">
          <mxGeometry relative="1" as="geometry" />
        </mxCell>
        <mxCell id="3eG_Ezx_b6iwPd1cCEZr-10" value="APP：主动进行测试模式" style="rounded=0;whiteSpace=wrap;html=1;" parent="1" vertex="1">
          <mxGeometry x="750" y="230" width="180" height="60" as="geometry" />
        </mxCell>
        <mxCell id="3eG_Ezx_b6iwPd1cCEZr-16" style="edgeStyle=orthogonalEdgeStyle;rounded=0;orthogonalLoop=1;jettySize=auto;html=1;exitX=0.5;exitY=1;exitDx=0;exitDy=0;entryX=0.5;entryY=0;entryDx=0;entryDy=0;" parent="1" source="3eG_Ezx_b6iwPd1cCEZr-11" target="3eG_Ezx_b6iwPd1cCEZr-2" edge="1">
          <mxGeometry relative="1" as="geometry" />
        </mxCell>
        <mxCell id="3eG_Ezx_b6iwPd1cCEZr-11" value="下次上电进入测试模式" style="rounded=0;whiteSpace=wrap;html=1;" parent="1" vertex="1">
          <mxGeometry x="750" y="341" width="180" height="60" as="geometry" />
        </mxCell>
      </root>
    </mxGraphModel>
  </diagram>
</mxfile>
